<svg xmlns="http://www.w3.org/2000/svg" xmlns:xlink="http://www.w3.org/1999/xlink" width="100%" height="100%" fill-rule="evenodd" stroke-linejoin="round" stroke-miterlimit="1.414" clip-rule="evenodd" version="1.1" viewBox="0 0 24 24" xml:space="preserve"><path fill="none" d="M23.997,6.002c0,-3.311 -2.688,-5.999 -5.999,-5.999l-11.999,0c-3.311,0 -5.999,2.688 -5.999,5.999l0,11.999c0,3.311 2.688,5.999 5.999,5.999l11.999,0c3.311,0 5.999,-2.688 5.999,-5.999l0,-11.999Z"/><clipPath id="_clip1"><path d="M23.997,6.002c0,-3.311 -2.688,-5.999 -5.999,-5.999l-11.999,0c-3.311,0 -5.999,2.688 -5.999,5.999l0,11.999c0,3.311 2.688,5.999 5.999,5.999l11.999,0c3.311,0 5.999,-2.688 5.999,-5.999l0,-11.999Z"/></clipPath><g clip-path="url(#_clip1)"><path fill="gold" d="M23.997,0.003l-24,0l12,12l12,-12Z"/><path fill="#a5c700" d="M-0.003,0.003l0,24l12,-12l-12,-12Z"/><path fill="#ff8a00" d="M-0.003,24.003l24,0l-12,-12l-12,12Z"/><path fill="#66aefd" d="M23.997,24.003l0,-24l-12,12l12,12Z"/><path fill="url(#_Linear2)" d="M22.497,-1.497l-10.5,10.497l3,3.003l10.5,-10.5l-3,-3Z"/><path fill="url(#_Linear3)" d="M25.499,22.503l-10.498,-10.5l-3.002,3l10.5,10.5l3,-3Z"/><path fill="url(#_Linear4)" d="M1.497,25.501l10.5,-10.497l-3,-3.003l-10.5,10.5l3,3Z"/><path fill="url(#_Linear5)" d="M-1.503,1.503l10.498,10.5l3.002,-3l-10.5,-10.5l-3,3Z"/></g><path fill="#fff" d="M21.75,5.852c0,-2.195 -1.782,-3.977 -3.977,-3.977l-11.546,0c-2.195,0 -3.977,1.782 -3.977,3.977l0,11.546c0,2.195 1.782,3.977 3.977,3.977l11.546,0c2.195,0 3.977,-1.782 3.977,-3.977l0,-11.546Z"/><path fill="#737373" d="M4.633,6.013l1.37,0l0,-1.828l1.399,0l0,1.828l1.696,0l0,-1.828l1.399,0l0,1.828l1.37,0l0,1.691l-1.37,0l0,1.902l1.37,0l0,1.69l-1.37,0l0,1.829l-1.399,0l0,-1.829l-1.696,0l0,1.829l-1.399,0l0,-1.829l-1.37,0l0,-1.69l1.37,0l0,-1.902l-1.37,0l0,-1.691Zm2.769,1.691l0,1.902l1.696,0l0,-1.902l-1.696,0Z"/><defs><linearGradient id="_Linear2" x1="0" x2="1" y1="0" y2="0" gradientTransform="matrix(-2.99995,-3,3,-2.99995,23.9974,3.00265)" gradientUnits="userSpaceOnUse"><stop offset="0" stop-color="#66aefd" stop-opacity="1"/><stop offset="1" stop-color="gold" stop-opacity="1"/></linearGradient><linearGradient id="_Linear3" x1="0" x2="1" y1="0" y2="0" gradientTransform="matrix(3,-2.99995,2.99995,3,20.9987,24.0027)" gradientUnits="userSpaceOnUse"><stop offset="0" stop-color="#ff8a00" stop-opacity="1"/><stop offset="1" stop-color="#66aefd" stop-opacity="1"/></linearGradient><linearGradient id="_Linear4" x1="0" x2="1" y1="0" y2="0" gradientTransform="matrix(2.99995,3,-3,2.99995,-0.00255928,21.0013)" gradientUnits="userSpaceOnUse"><stop offset="0" stop-color="#a5c700" stop-opacity="1"/><stop offset="1" stop-color="#ff8a00" stop-opacity="1"/></linearGradient><linearGradient id="_Linear5" x1="0" x2="1" y1="0" y2="0" gradientTransform="matrix(-3,2.99995,-2.99995,-3,2.99744,0.00265252)" gradientUnits="userSpaceOnUse"><stop offset="0" stop-color="gold" stop-opacity="1"/><stop offset="1" stop-color="#a5c700" stop-opacity="1"/></linearGradient></defs></svg>